#!OML:ASF F:\VICON\USERDATA\INSTALL\rory3\rory3.ASF
:FULLY-SPECIFIED
:DEGREES
27
root 0.19980581042295675 17.790782207040397 2.3491383231561764 -2.260089944931534 -2.170097797929518 -0.01575719860041236
lfemur -9.829176454145951 -1.6186331426197924 -24.025863404917448
ltibia 21.222817908333994
lfoot 8.010386290348176 -6.524589211542219
ltoes 1.0254559318095766
rfemur -19.497385047897644 2.4525612035043975 20.21636020920468
rtibia 41.16514891131357
rfoot -16.538385449539145 -8.27723193108366
rtoes -4.509506950291408
lowerback 10.713839790878586 -0.057860433715555826 -1.9539231298371098
upperback 0.7082923436087324 -0.045787894591839406 1.2770531991062286
thorax -5.65234497969799 0.10640471617013891 1.7906704672157097
lowerneck -15.705019857848942 -3.162033341052264 -1.4961162651469941
upperneck 21.362052339806738 -4.199035132353278 0.5335699009480999
head 9.391410354630118 -2.0192346306967064 -0.14377152075128807
lclavicle -2.7026064543750212e-15 -2.3230481476794936e-15
lhumerus -37.61140780567858 10.479241155591113 81.93953725628567
lradius 22.242446686323284
lwrist 6.9347258212711615
lhand -27.834542093650875 23.170192092783413
lfingers 7.125020000000001
lthumb -1.0439517019244369 53.45490404632376
rclavicle -2.702606454441149e-15 -2.3230481477256017e-15
rhumerus -22.499776341852556 -14.885400416121204 -71.29689737626691
rradius 32.60196407677408
rwrist 9.023286689652258
rhand -17.91967857096688 22.335298252102454
rfingers 7.125020000000001
rthumb 8.354266992521511 -7.373472783734032
28
root 0.16546778528724115 17.785533037559848 2.322243702770808 -2.249021663121342 -2.236742298483609 0.05903936313348224
lfemur -7.810986443208319 -1.6725316266222086 -24.19833446098677
ltibia 19.53791065551315
lfoot 8.597551924640339 -8.851974124199113
ltoes 2.4755378685039706
rfemur -20.9111936125489 2.5120785879114824 19.875111128557123
rtibia 40.10410879908889
rfoot -16.549622332110037 -7.960142547689763
rtoes -3.4787819569312948
lowerback 10.636296922143735 -0.19136864537104575 -2.1004323731174512
upperback 0.571578015042431 -0.40438226655015697 1.2833513909373941
thorax -5.680021998529567 -0.09295051812156813 2.069128272658315
lowerneck -15.674093644189234 -3.1099777040844994 -1.5020263813973291
upperneck 21.58655141123542 -4.133302146763132 0.6577270035174959
head 9.536465575632421 -1.987843490701457 -0.09413624047603919
lclavicle -2.7026064543850977e-15 -2.3230481476865586e-15
lhumerus -36.872338011555726 9.874029672903907 81.8880399368516
lradius 22.303444331690972
lwrist 6.850858938956543
lhand -27.874748610179893 23.137312818993784
lfingers 7.125020000000001
lthumb -1.1909477064561709 53.388901645256574
rclavicle -2.702606454436186e-15 -2.3230481477221335e-15
rhumerus -22.911086198433715 -14.64908957824896 -71.73416586526736
rradius 31.9246252649947
rwrist 8.520938745760427
rhand -18.195144019442107 22.36185018039299
rfingers 7.125020000000001
rthumb 8.085348442685858 -7.298318975611766
29
root 0.13624393439547683 17.79272109291636 1.8661789503794557 -2.104630134640842 -2.19336916470536 -0.20190759628501898
lfemur -5.013927464334444 -1.7041779596192477 -23.735619724063586
ltibia 18.202959480184163
lfoot 7.224639445896352 -12.094475647953395
ltoes 2.081862138559123
rfemur -21.56887256322178 2.966696585126032 21.014075506606403
rtibia 38.50576193606758
rfoot -16.65763090821764 -7.938678055695649
rtoes -4.003874554732761
lowerback 10.493433432266556 -0.279631058187472 -1.9107663575305776
upperback 0.545559639746492 -0.5604001490428386 1.2904117961456716
thorax -5.617581477391039 -0.19714588659358495 2.2669065043555703
lowerneck -15.776451034281566 -3.073702253408907 -1.5752953230499003
upperneck 21.915594373668334 -4.078169865697351 0.726620436169926
head 9.640099303195862 -1.9645396114840357 -0.052202310713836686
lclavicle -2.7026064543783837e-15 -2.3230481476813596e-15
lhumerus -35.89209146596597 8.959010098564189 81.81926591815879
lradius 22.511285360498437
lwrist 6.711860172373896
lhand -28.069949705849783 23.38471004616336
lfingers 7.125020000000001
lthumb -1.487392063253351 53.52911625628972
rclavicle -2.7026064544148528e-15 -2.323048147706667e-15
rhumerus -23.23414947483235 -14.22066620642211 -72.50080093344498
rradius 31.04943480927748
rwrist 8.179243288298682
rhand -18.176818808738528 22.648076683515598
rfingers 7.125020000000001
rthumb 7.993294485941374 -7.1470158396110035
30
root 0.12845830700895383 17.792724966435035 2.749326669994794 -2.124189992109631 -2.6642054711338807 -0.8639262730415029
lfemur -2.1133848599482796 -1.598689187738193 -22.96540816609681
ltibia 17.00132253734103
lfoot 2.4520253615266556 -14.101454627106106
ltoes 2.0225740176177145
rfemur -21.79059879802204 3.934907320430236 22.43684902392101
rtibia 37.58110385423401
rfoot -16.571447652011646 -8.098888446748486
rtoes -4.976121325748288
lowerback 10.456462153199984 -0.19530250135167404 -1.612786506313278
upperback 0.47083702040247893 -0.41871882413276906 1.2838420256469931
thorax -5.6042161330989195 -0.12345653783661237 2.356433679484215
lowerneck -15.863336925724806 -3.0326968898669335 -1.588164712509097
upperneck 22.350413614505765 -4.0083892652815045 0.795786661107647
head 9.877659263082567 -1.9332930637461505 -0.0073575232193051066
lclavicle -2.702606454390852e-15 -2.3230481476899673e-15
lhumerus -34.96069707806637 7.7889828849313645 81.65957170592714
lradius 22.664443791030003
lwrist 6.8553029729899695
lhand -28.31582248751886 23.384272164005914
lfingers 7.125020000000001
lthumb -1.8190393106236908 53.379145487644514
rclavicle -2.7026064544113794e-15 -2.323048147703969e-15
rhumerus -23.5459720590859 -13.835338984955223 -73.64485136995309
rradius 30.023310573836458
rwrist 7.262306105024883
rhand -18.25302065762552 22.608273351283806
rfingers 7.125020000000001
rthumb 7.951354420559143 -7.160847160609866
